<svg xmlns="http://www.w3.org/2000/svg" xmlns:xlink="http://www.w3.org/1999/xlink" viewBox="0 0 400 300"><defs><linearGradient id="linear-gradient" x1="110.4" y1="200.12" x2="84.45" y2="225.13" gradientUnits="userSpaceOnUse"><stop offset="0" stop-color="#78b46a"/><stop offset="0.03" stop-color="#7f3500"/><stop offset="1" stop-color="#fff"/></linearGradient><linearGradient id="linear-gradient-2" x1="283.18" y1="123.43" x2="260.86" y2="144.94" xlink:href="#linear-gradient"/></defs><title>ZZZ</title><g style="isolation:isolate"><g id="Layer_2" data-name="Layer 2"><path d="M209.12,290.33,383.76,187.12c5.56-3.12,10.33-8.25,4.91-11.61L213.4,74.49c-2.63-1.63-6.62-2.7-9.3-1.14L20.77,179.75c-5.56,3.23-6.56,12.25-1,15.48L186.1,290.17A23.22,23.22,0,0,0,209.12,290.33Z" fill="#fd8386"/><polyline points="66.97 146.02 91.29 159.98 173.25 112.47 244.04 153.61 153.96 206.83 206.3 237.58 296.43 185.59 342.93 214.08" fill="none" stroke="#f2f2f2" stroke-miterlimit="10" stroke-width="10"/><path d="M72.26,106.56v43.87c0,2.57,4,2.58,4,0V106.56C76.26,104,72.26,104,72.26,106.56Z" fill="#89242c"/><path d="M121.64,51v48.1a6,6,0,0,1-3.06,5.25l-81.42,46a4.2,4.2,0,0,1-6.26-3.65V101.15a9.07,9.07,0,0,1,4.42-7.78l78.49-46.85A5.19,5.19,0,0,1,121.64,51Z" fill="#68e1fd"/><path d="M194.59,82v43.87c0,2.57,4,2.58,4,0V82C198.59,79.4,194.59,79.39,194.59,82Z" fill="#89242c"/><path d="M242,21.21v49a8.29,8.29,0,0,1-4.21,7.22L157.6,122.72a4.28,4.28,0,0,1-6.38-3.72V72.91a7.89,7.89,0,0,1,3.85-6.78L236,17.82A4,4,0,0,1,242,21.21Z" fill="#adce46"/><path d="M197.91,189.55v43.87c0,2.57,4,2.58,4,0V189.55C201.91,187,197.91,187,197.91,189.55Z" fill="#89242c"/><path d="M245.28,122v49.43a8,8,0,0,1-4.07,7l-79.56,45a4.77,4.77,0,0,1-7.12-4.16V174.36a8.47,8.47,0,0,1,4.13-7.28l80.9-48.29A3.78,3.78,0,0,1,245.28,122Z" fill="#ffbe2e"/><path d="M331.91,161.47v43.87c0,2.57,4,2.58,4,0V161.47C335.91,158.89,331.91,158.89,331.91,161.47Z" fill="#89242c"/><path d="M377.28,100.42v49.16a7.69,7.69,0,0,1-3.9,6.69l-78.77,44.54a5.41,5.41,0,0,1-8.07-4.71V154.16A11.78,11.78,0,0,1,292.27,144L371.17,97A4,4,0,0,1,377.28,100.42Z" fill="#68e1fd"/><polygon points="79.43 74.44 79.1 117.59 71.37 122.03 71.62 89.96 66.83 94.36 65.4 86.04 73.73 77.72 79.43 74.44" fill="#fff"/><path d="M199.24,46.89c6.19-3.56,10.39-.43,10.33,7.65-.05,7-2.43,11.88-6.67,18.88L198,81.36l11.69-6.72-.07,9.67L187.21,97.19l.07-8.94L198,69.92c2.65-4.64,3.68-7.23,3.7-9.81s-1.22-3.62-3.12-2.53-3.42,3.6-5.67,8.74l-5.25-3.62C190.72,55,193.74,50.05,199.24,46.89Z" fill="#fff"/><path d="M209,145.4l-.07,8.51-6.83,12.65c4-1,7.29.56,7.23,7.84-.07,8.82-4.73,17-11,20.67-5.46,3.14-9.28,2.36-12-.66l5-10.31c2,2,4.13,2.5,6.72,1a7.57,7.57,0,0,0,3.68-6.44c0-2.87-1.62-3.58-4.58-1.88l-3.32,1.91-1.08-5.53,6.58-12.62-10.85,6.24.07-9.61Z" fill="#89242c"/><path d="M341.28,151.6l3.6-1.95-.2,8.95-3.6,1.95-.18,8.39-7.61,4.13.19-8.4-13.71,7.44-1.11-7.75,15.26-34.61,7.93-4.3Zm-7.61,4.19.27-12.4-7,16.07,6.75-3.67" fill="#fff"/><circle cx="74.26" cy="150.47" r="7.94" fill="#89242c"/><circle cx="196.59" cy="122.83" r="7.94" fill="#89242c"/><circle cx="199.91" cy="231.89" r="7.94" fill="#89242c"/><circle cx="333.91" cy="203.55" r="7.94" fill="#89242c"/><path d="M66.32,221.16l45.86-13.68,5.46,7.1L92.86,236.31Z" opacity="0.46" fill="url(#linear-gradient)" style="mix-blend-mode:multiply"/><path d="M116.77,216.4v-33h-7.19v33.29A9.61,9.61,0,0,0,116.77,216.4Z" fill="#a83f1e"/><path d="M113.91,183.49v33.8a7.23,7.23,0,0,0,2.86-.8v-33Z" fill="#7f2b14"/><path d="M123.17,186.49c4.47-.22,10.19-1.82,8.51-6.8-1-2.94-4-5.54-6-7.87s-1.52-3.9-3.69-6.18c1.85.08,4.54-.27,5-2.11.4-1.61-8.23-11.45-12-15.45a2.39,2.39,0,0,0-3.24-.24c-4.45,3.54-15.81,13-14.23,15.69,1,1.64,2.89,2.21,4.62,2.36-4.09,4.1-8.75,9.22-9.22,14.68-.41,4.73,4.43,5.37,8.94,5.12-3.12,3.79-11.58,14.58-9.65,17.86,1,1.73,4.3,2.3,6.24,2.69a62,62,0,0,0,12.8,1.23A39.42,39.42,0,0,0,124,205.56a17.82,17.82,0,0,0,6.21-3.41c2-1.87.88-3.85-.41-5.73C127.58,193.13,125.38,189.81,123.17,186.49Z" fill="#52af45"/><path d="M122,165.64s-5.44-.35-9.23-.25L132,181.16s.51-1.83-2.88-5.59A77.21,77.21,0,0,1,122,165.64Z" fill="#0d5b23"/><path d="M123.17,186.49H112l18.23,15.66a2.78,2.78,0,0,0,.8-3.6C129.83,196.42,123.17,186.49,123.17,186.49Z" fill="#0d5b23"/><path d="M245.28,141.52l39.44-11.76,4.69,6.1L268.1,154.54Z" opacity="0.46" fill="url(#linear-gradient-2)" style="mix-blend-mode:multiply"/><path d="M290.3,133.95V105.57h-6.18v28.62A8.26,8.26,0,0,0,290.3,133.95Z" fill="#a83f1e"/><path d="M287.84,105.65v29.06a6.22,6.22,0,0,0,2.46-.69V105.65Z" fill="#7f2b14"/><path d="M295.81,108.23c3.84-.19,8.76-1.57,7.32-5.85-.85-2.53-3.47-4.76-5.14-6.77s-1.3-3.35-3.17-5.31c1.59.07,3.9-.23,4.29-1.81.34-1.38-7.08-9.85-10.3-13.29A2.06,2.06,0,0,0,286,75c-3.83,3-13.6,11.15-12.23,13.49a4.87,4.87,0,0,0,4,2c-3.51,3.52-7.52,7.93-7.93,12.62-.35,4.07,3.81,4.61,7.69,4.4-2.68,3.26-10,12.54-8.3,15.36.88,1.49,3.7,2,5.37,2.31a53.33,53.33,0,0,0,11,1.06,33.9,33.9,0,0,0,10.94-1.65,15.33,15.33,0,0,0,5.34-2.93c1.71-1.61.75-3.31-.35-4.93C299.59,113.94,297.7,111.08,295.81,108.23Z" fill="#52af45"/><path d="M294.81,90.3s-4.68-.3-7.94-.22l16.5,13.56s.44-1.58-2.48-4.8A66.39,66.39,0,0,1,294.81,90.3Z" fill="#0d5b23"/><path d="M295.81,108.23h-9.6l15.68,13.46a2.39,2.39,0,0,0,.69-3.1C301.53,116.76,295.81,108.23,295.81,108.23Z" fill="#0d5b23"/></g></g></svg>